<svg width="142" height="32" viewBox="0 0 142 32" fill="none" xmlns="http://www.w3.org/2000/svg">
<path d="M14.8785 15.3904C14.2903 13.209 12.5536 12.2808 10.3865 12.2808C9.02742 12.2808 6.93774 12.649 6.93774 14.3322C6.93774 18.6641 20.7915 13.7382 20.7915 24.1594C20.795 25.3252 20.5151 26.4744 19.9758 27.5082C19.4366 28.542 18.6541 29.4294 17.6957 30.094C15.606 31.539 13.052 31.9876 10.5258 31.9876C5.71799 31.9876 1.21666 30.3632 0 25.2052L5.77061 24.3852C6.2226 26.7523 8.71784 27.4794 10.8509 27.4794C12.1201 27.4794 14.8754 27.0215 14.8754 25.2949C14.8754 23.7478 13.5164 23.4724 12.2904 23.3363C10.6961 23.1723 6.90059 22.4916 5.43317 21.9872C2.71194 21.0342 0.888502 18.6672 0.888502 15.7556C0.888502 10.0839 5.84182 8.05105 10.7425 8.05105C15.2779 8.05105 18.2406 9.76523 19.8318 14.0723L14.8785 15.3904ZM54.2202 31.5513C53.8895 30.4353 53.737 29.2741 53.7683 28.1106V17.3738C53.7683 14.5891 53.9943 12.0364 51.6352 10.1334C49.7777 8.58635 46.6819 8.05105 44.3198 8.05105C39.4501 8.05105 34.0076 9.68169 33.3296 15.2729L39.6327 15.8669C39.6327 13.5865 41.4902 12.4881 43.6387 12.4881C44.6387 12.4881 45.781 12.7975 46.3692 13.5865C47.041 14.4715 46.9482 15.6473 46.9482 16.6467V17.1913C44.131 17.4635 40.4469 17.643 37.8186 18.6393C34.7785 19.7687 32.6455 22.0832 32.6455 25.496C32.6455 29.8279 35.8249 31.9938 39.9052 31.9938C43.3849 31.9938 45.3817 30.685 47.2825 27.9899C47.2263 29.1835 47.3304 30.3792 47.5921 31.5452H54.2141M46.9482 21.4458C46.9482 23.0857 46.9977 24.4502 46.0411 25.9045C45.6857 26.4786 45.1915 26.9542 44.604 27.2873C44.0164 27.6204 43.3544 27.8003 42.679 27.8105C40.8215 27.8105 39.7225 26.5883 39.7225 24.772C39.7225 21.4024 44.4034 20.8114 46.9482 20.5392V21.4458ZM81.3582 17.2624C81.3582 15.1708 80.2716 13.1255 77.8692 13.1255C74.1945 13.1255 73.7425 16.7612 73.7425 19.7161C73.7425 22.5287 73.7828 26.5233 77.5937 26.5233C79.9527 26.5233 81.1322 24.6668 81.3582 22.5287L87.7078 22.8907C87.166 28.6088 82.8566 32 77.2346 32C70.2535 32 66.1361 27.0679 66.1361 20.2607C66.1361 13.1781 70.3928 8.05105 77.6401 8.05105C82.9928 8.05105 87.2558 11.498 87.7078 16.8973L81.3582 17.2624ZM121.344 31.5513C121.011 30.4358 120.857 29.2744 120.889 28.1106V17.3738C120.889 14.5891 121.115 12.0364 118.756 10.1334C116.898 8.58635 113.802 8.05105 111.443 8.05105C106.574 8.05105 101.128 9.68169 100.45 15.2729L106.756 15.8669C106.756 13.5865 108.614 12.4881 110.759 12.4881C111.762 12.4881 112.902 12.7975 113.493 13.5865C114.158 14.4715 114.072 15.6473 114.072 16.6467V17.1913C111.255 17.4635 107.571 17.643 104.942 18.6393C101.902 19.7687 99.7691 22.0832 99.7691 25.496C99.7691 29.8279 102.945 31.9938 107.029 31.9938C110.505 31.9938 112.499 30.685 114.406 27.9899C114.348 29.1835 114.453 30.3795 114.716 31.5452H121.338M114.066 21.4396C114.066 23.0795 114.109 24.444 113.155 25.8983C112.8 26.4725 112.306 26.948 111.718 27.2811C111.131 27.6142 110.469 27.7941 109.793 27.8043C107.936 27.8043 106.84 26.5821 106.84 24.7658C106.84 21.3962 111.521 20.8053 114.066 20.533V21.4396ZM134.483 0H141.12V6.43589H134.483V0ZM134.483 8.49661H141.12V31.5513H134.483V8.49661Z" fill="#231815"/>
</svg>
