<svg width="64" height="44" viewBox="0 0 64 44" fill="none" xmlns="http://www.w3.org/2000/svg">
<path d="M34.9613 16.061C35.4953 16.061 35.928 15.7419 35.928 15.349C35.928 14.9554 35.4951 14.6362 34.9613 14.6362C34.4273 14.6362 33.9951 14.9555 33.9951 15.349C33.9951 15.7419 34.4273 16.061 34.9613 16.061Z" fill="black"/>
<path d="M29.3657 18.8078C28.8322 18.8078 28.3997 19.1261 28.3997 19.5198C28.3997 19.9134 28.8322 20.2318 29.3657 20.2318C29.8997 20.2318 30.3325 19.9135 30.3325 19.5198C30.3325 19.1261 29.8997 18.8078 29.3657 18.8078Z" fill="black"/>
<path d="M23.5672 23.4872C23.0332 23.4872 22.6009 23.8056 22.6009 24.1993C22.6009 24.5929 23.0334 24.9112 23.5672 24.9112C24.1009 24.9112 24.5341 24.5929 24.5341 24.1993C24.534 23.8056 24.1009 23.4872 23.5672 23.4872Z" fill="black"/>
<path d="M17.328 28.4742C16.794 28.4742 16.3612 28.853 16.3612 29.3202C16.3612 29.7867 16.7941 30.1663 17.328 30.1663C17.8612 30.1663 18.2941 29.7867 18.2941 29.3202C18.2941 28.853 17.8612 28.4742 17.328 28.4742Z" fill="black"/>
<path d="M63.0359 16.4091L63.0994 16.4405L63.0304 16.406C62.7783 16.2783 62.503 16.2155 62.2325 16.2162C61.8624 16.2155 61.493 16.3331 61.1838 16.5605L37.3688 34.1606V36.6901L61.9651 18.5129V20.7649C61.9651 20.99 61.8581 21.2024 61.6766 21.3374L34.9129 41.1715C34.7875 41.2648 34.6396 41.3119 34.4879 41.3119C34.3899 41.3119 34.2923 41.2884 34.1989 41.2476L34.2005 41.2429L34.1519 41.2264C33.921 41.1032 33.7751 40.8618 33.7751 40.5991V35.7164C33.7751 34.5778 34.315 33.5051 35.2309 32.8276L60.8956 13.8075C61.6018 13.2836 62.0075 12.462 62.0075 11.6001C62.0075 11.4527 61.9954 11.3054 61.9715 11.1595C61.806 10.1449 61.0894 9.3075 60.112 8.9875L33.242 0.221126C32.7884 0.0721256 32.3199 0 31.8534 0C30.9164 0 29.9899 0.294 29.2136 0.860875L29.214 0.860126L2.2865 20.5076L2.28063 20.5116C0.846875 21.574 0.002375 23.2521 0.002375 25.0359V29.2929C0.002375 29.3751 0 29.4841 0 29.6112C0 29.801 0.00425 30.03 0.035625 30.2833C0.059125 30.473 0.097875 30.6776 0.167 30.8925C0.26975 31.2124 0.446875 31.559 0.73775 31.8554C1.01537 32.1424 1.39137 32.3626 1.81362 32.4881L1.81288 32.4904L33.4385 43.1324C33.776 43.2728 34.1324 43.3464 34.488 43.3464C35.0659 43.3464 35.6423 43.1637 36.1245 42.8061L62.8877 22.972C63.5872 22.4538 64 21.6342 64 20.7647V17.9835C64 17.3195 63.6271 16.7119 63.0359 16.4091ZM49.2188 7.57375L44.5568 14.7139L38.9469 10.286L49.0705 7.52525L49.2188 7.57375ZM38.6371 4.12125L46.6061 6.72137L38.0346 9.058L38.6371 4.12125ZM37.2002 4.13937L36.5824 9.2015L30.6066 8.441C31.6737 7.73375 33.1276 6.77312 34.4951 5.88087C35.5004 5.22462 36.4594 4.60588 37.1779 4.1535L37.2002 4.13937ZM13.257 34.1944L2.43863 30.5538L2.41425 30.5468C2.28375 30.5093 2.23625 30.4724 2.2045 30.4449L2.14325 30.3641C2.1135 30.3091 2.0805 30.2128 2.061 30.0786C2.041 29.9469 2.03437 29.7831 2.03475 29.6114C2.03437 29.5094 2.03625 29.4044 2.03625 29.293V25.036C2.03625 23.8968 2.57612 22.8241 3.4915 22.1466L3.48338 22.1521L30.4132 2.50463C30.837 2.19488 31.3416 2.03425 31.8533 2.03425C32.1069 2.03425 32.3625 2.075 32.611 2.155L35.9501 3.24487C35.6815 3.41587 35.3934 3.60088 35.0884 3.79763C32.2784 5.6105 28.2257 8.31175 28.2246 8.31338L26.6376 9.37112L35.6874 10.523L15.3984 26.3164L15.3988 26.3171C14.0513 27.3224 13.257 28.9039 13.257 30.5859V34.1944ZM31.7407 35.7164V40.4147L14.622 34.6531H14.6809V30.5859C14.6809 29.3494 15.2669 28.1874 16.2596 27.4503L16.2679 27.4447L37.4734 10.9377L44.8974 16.7974L50.6201 8.031L59.481 10.922C59.7335 11.0044 59.92 11.2223 59.9631 11.4858L59.9721 11.6003C59.9721 11.823 59.867 12.037 59.6836 12.1726L34.0195 31.1919C32.5858 32.2545 31.7407 33.9333 31.7407 35.7164Z" fill="black"/>
</svg>
