<svg width="64" height="64" viewBox="0 0 64 64" fill="none" xmlns="http://www.w3.org/2000/svg">
<path fill-rule="evenodd" clip-rule="evenodd" d="M14.6049 8.97554C14.4969 9.00784 14.393 9.05494 14.2971 9.12089L14.2877 9.12762L14.2809 9.133L14.2782 9.13569C14.2647 9.14511 14.2499 9.15588 14.2364 9.16665L14.2283 9.17337L14.2256 9.17607L14.2229 9.17876L14.2188 9.18279L14.2121 9.18818L14.204 9.19491L14.1999 9.1976H14.1986C14.1851 9.21106 14.1716 9.22317 14.1594 9.23528L14.1473 9.24739L14.1405 9.25412H14.1392C14.1392 9.25412 4.85582 18.5051 2.53768 20.8145C1.82077 21.5291 1.82077 22.6891 2.53768 23.4038C4.0174 24.8787 8.24459 29.0911 9.72431 30.5674C10.0686 30.9106 10.5357 31.1044 11.0231 31.1044C11.5105 31.1044 11.9776 30.9119 12.3219 30.5674L13.7652 29.1301L13.6936 56.1643C13.6936 56.6502 13.8853 57.1172 14.2296 57.4617C14.5739 57.8062 15.0424 58 15.5298 58H48.3901C48.8775 58 49.3446 57.8076 49.6889 57.4644C50.0331 57.1212 50.2262 56.6556 50.2262 56.1697V29.1664L51.6762 30.6118C52.3931 31.3264 53.5569 31.3264 54.2738 30.6118L61.4618 23.4468C62.1774 22.7336 62.1801 21.5775 61.4659 20.8616L49.9103 9.2595L49.9076 9.25547L49.8954 9.24336L49.8887 9.23663H49.8873V9.23393L49.8806 9.22721L49.8684 9.21644H49.8671C49.8603 9.20836 49.8536 9.20298 49.8468 9.1976L49.832 9.18414L49.8293 9.18145L49.8266 9.17876L49.8212 9.17472L49.8158 9.17068L49.8104 9.16665L49.805 9.16126L49.8009 9.15857H49.7996L49.7942 9.15319C49.6862 9.07109 49.5674 9.01188 49.4418 8.97554L39.6373 6.05114L39.5604 6.02961L39.4739 6.01211L39.4024 6.00404L39.3484 6H39.2944H39.2404L39.1864 6.00404L39.1175 6.01346C38.9488 6.04172 38.7935 6.10901 38.6612 6.20591L38.6369 6.22475C38.5059 6.32434 38.3966 6.45353 38.321 6.60561L38.2872 6.68097L38.2697 6.72673L38.2521 6.78056L38.2359 6.84246L38.2183 6.9286L38.2102 6.99858L38.2062 7.05241V7.11028V10.0239C38.2062 13.4597 35.4074 16.2495 31.9606 16.2495C28.5138 16.2495 25.715 13.4597 25.715 10.0239V7.03895L25.7069 6.97166L25.7015 6.93129L25.692 6.87746L25.6826 6.83439C25.665 6.76441 25.6421 6.69847 25.611 6.63387L25.6043 6.61906C25.5341 6.47506 25.4355 6.3526 25.3167 6.25435L25.2668 6.21533L25.2195 6.18303C25.0912 6.09824 24.9441 6.04037 24.7861 6.0148L24.7699 6.01211C24.6997 6.00135 24.6295 5.99865 24.5566 6.00269L24.4999 6.00673L24.4445 6.01346L24.3905 6.02288L24.3473 6.03364C24.3244 6.03903 24.3028 6.04576 24.2798 6.05249L14.6063 8.97554H14.6049ZM40.4082 8.5745V10.028C40.4082 14.6763 36.6225 18.4499 31.9592 18.4499C27.296 18.4499 23.5103 14.6763 23.5103 10.028V8.57988L16.0172 10.8435L15.8984 55.801H48.0228V10.8462L40.4082 8.5745ZM50.2262 12.694V26.0577L52.975 28.7977L59.6446 22.1495L50.2262 12.694ZM13.8084 12.6886L4.35628 22.1091L11.0231 28.7546L13.7733 26.0132L13.8084 12.6872V12.6886Z" fill="black"/>
</svg>
