<svg width="490" height="180" viewBox="0 0 490 180" fill="none" xmlns="http://www.w3.org/2000/svg">
<path d="M30.8714 180C31.5924 176.716 33.0643 173.732 34.5463 170.748C38.1511 163.488 41.7258 156.208 45.4107 148.979C47.2631 145.344 49.2758 141.789 51.3185 138.255C56.2751 129.653 61.2116 121.032 66.2883 112.501C71.5653 103.629 77.0025 94.8573 82.3596 86.0356C85.0632 81.5897 87.7768 77.1438 90.4303 72.6779C91.1012 71.5564 91.6119 70.3348 92.1426 69.1332C92.2627 68.8629 92.1726 68.5124 92.1826 68.192C91.8922 68.242 91.5518 68.202 91.3115 68.3422C89.1185 69.6339 86.9557 70.9757 84.7628 72.2674C80.377 74.8408 75.9912 77.4242 71.5653 79.9375C65.1468 83.5823 58.7083 87.1971 52.2698 90.7919C44.3893 95.1877 36.5089 99.5935 28.5884 103.929C23.2914 106.823 17.9443 109.627 12.5972 112.41C10.1841 113.662 7.56058 114.263 4.857 114.443C2.18346 114.623 0.110717 112.671 0.0406243 109.827C0.000571303 108.035 0.761579 106.573 1.44248 105.071C3.32497 100.895 5.24752 96.7297 7.30023 92.6343C9.48312 88.2886 11.8262 84.0229 14.1193 79.7373C18.0945 72.2874 22.0598 64.8375 26.0651 57.4077C29.1792 51.62 32.3434 45.8624 35.4875 40.0948C39.573 32.6049 43.5983 25.0849 47.7738 17.6551C49.9667 13.7599 52.3599 9.96489 54.8031 6.21993C55.9446 4.48764 57.4366 2.97563 58.7684 1.3635H60.1101C61.0814 3.04573 60.3605 4.48764 59.4393 5.87948C57.8872 8.21257 56.225 10.4655 54.7631 12.8487C51.9794 17.4047 49.2357 22.0008 46.5923 26.647C43.388 32.2844 40.2939 37.992 37.1698 43.6795C34.6965 48.1955 32.2332 52.7115 29.8 57.2475C26.1352 64.0665 22.5004 70.9056 18.8455 77.7346C15.9016 83.2319 12.9077 88.6991 10.0138 94.2164C8.06124 97.9514 6.20879 101.746 4.38638 105.551C3.95581 106.443 3.75554 107.464 3.56529 108.445C3.33499 109.627 3.85568 110.218 5.03724 110.208C7.75083 110.178 10.2842 109.447 12.6774 108.215C16.3722 106.312 20.0571 104.37 23.732 102.417C27.8775 100.214 32.0129 97.9914 36.1484 95.7785C40.0836 93.6657 44.0489 91.5829 47.9541 89.4101C54.3225 85.8554 60.6809 82.2606 67.0093 78.6458C73.5379 74.9209 80.0465 71.1459 86.5552 67.3809C89.8896 65.4483 93.204 63.4557 96.5584 61.5532C96.999 61.3029 97.7299 61.2428 98.1906 61.423C98.8114 61.6633 98.9816 62.4343 98.7613 63.0251C98.2707 64.3869 97.79 65.7688 97.0791 67.0204C93.6646 73.0284 90.2801 79.0564 86.7054 84.9742C82.1193 92.5642 77.3029 100.014 72.7068 107.604C67.59 116.055 62.5734 124.557 57.5968 133.088C53.211 140.598 48.9053 148.158 44.6597 155.748C41.866 160.755 39.2625 165.861 36.549 170.908C35.1371 173.541 33.6551 176.135 32.2132 178.748C31.9829 179.169 31.7326 179.579 31.5023 180H30.8314H30.8714Z" fill="black"/>
<path d="M135.75 134.079C136.241 133.478 136.722 132.878 137.212 132.287C140.537 128.342 143.791 124.356 147.195 120.481C149.559 117.788 152.112 115.264 154.605 112.681C157.079 110.118 159.482 107.484 162.075 105.061C165.51 101.857 169.094 98.8125 172.619 95.6984C176.294 92.4541 179.929 89.1698 183.674 86.0056C185.747 84.2533 187.979 82.7012 190.162 81.0991C190.973 80.4983 191.805 80.8688 191.775 81.8701C191.754 82.6812 191.514 83.5323 191.184 84.2833C189.852 87.2673 188.44 90.2212 187.078 93.1851C186.447 94.5669 185.857 95.9688 185.246 97.3606C185.326 97.4207 185.406 97.4808 185.486 97.5309C185.716 97.3306 185.937 97.1203 186.167 96.92C186.638 96.5095 187.138 96.0489 187.789 96.5195C188.39 96.9501 188.22 97.5609 187.969 98.1216C186.357 101.847 184.585 105.491 182.112 108.746C181.561 109.477 181.19 109.527 180.46 108.946C179.338 108.035 178.988 106.803 178.958 105.441C178.917 103.579 179.508 101.847 180.179 100.154C181.371 97.1403 182.632 94.1564 183.844 91.1524C183.984 90.812 184.014 90.4314 184.144 89.8307C183.714 90.061 183.514 90.1311 183.363 90.2612C178.467 94.4368 173.51 98.5522 168.694 102.838C165.139 106.002 161.705 109.306 158.34 112.671C152.282 118.739 146.825 125.338 141.418 131.986C138.444 135.631 135.32 139.156 132.226 142.691C131.475 143.542 130.604 144.303 129.692 144.974C128.891 145.574 127.279 145.444 126.778 144.643C126.458 144.133 126.528 143.231 126.718 142.59C126.999 141.639 127.479 140.718 127.99 139.857C130.483 135.641 132.987 131.436 135.54 127.26C138.895 121.763 141.878 116.075 144.802 110.338C147.736 104.58 150.7 98.8526 153.644 93.105C153.794 92.8046 153.934 92.5042 154.045 92.1838C154.105 91.9935 154.095 91.7732 154.115 91.5629C153.884 91.573 153.604 91.5029 153.424 91.613C152.292 92.2839 151.181 92.9848 150.069 93.6757C149.218 94.2064 148.367 94.7472 147.506 95.2679C145.103 96.7298 141.788 95.9387 140.707 93.3954C140.487 92.8847 140.437 92.2639 140.457 91.6931C140.487 90.9421 140.677 90.2011 140.757 89.4501C140.787 89.1998 140.677 88.9295 140.637 88.6691C140.376 88.7192 140.056 88.6891 139.866 88.8293C138.834 89.6003 137.823 90.3814 136.842 91.2125C133.708 93.846 130.604 96.4995 127.479 99.133C126.448 100.004 126.228 99.9841 125.367 99.4534C123.925 98.5822 123.815 97.7511 124.195 96.4895C124.886 94.2165 125.687 91.9835 126.438 89.7205C126.498 89.5303 126.468 89.31 126.488 88.8393C125.777 89.31 125.226 89.6104 124.746 90.0109C121.231 92.9348 117.226 95.0375 113.18 97.0903C112.409 97.4808 111.588 97.7712 110.777 98.0616C109.836 98.402 108.945 98.1617 108.124 97.6911C107.473 97.3206 106.952 97.3706 106.542 98.0115C105.881 99.0128 105.25 100.044 104.579 101.045C103.187 103.108 101.195 104.52 99.1419 105.842C98.9016 105.992 98.4409 106.032 98.1906 105.902C96.2981 104.921 95.5872 104.07 96.0578 101.997C96.5484 99.8539 97.3595 97.8312 98.511 95.9588C99.4723 94.3867 100.544 92.8847 101.605 91.3727C101.896 90.9622 102.226 90.4214 102.897 90.7318C103.588 91.0423 103.968 91.633 103.818 92.354C103.658 93.1651 103.408 93.9862 103.027 94.7171C102.136 96.4294 101.135 98.0816 100.223 99.7838C100.073 100.054 100.143 100.445 100.113 100.785C100.434 100.665 100.794 100.625 101.054 100.425C102.697 99.183 103.518 97.3506 104.479 95.6183C104.98 94.7171 105.54 93.836 106.171 93.0249C106.942 92.0336 107.934 92.0035 108.604 92.9448C109.706 94.4768 111.098 94.1564 112.99 93.2952C117.476 91.2626 121.431 88.3787 125.457 85.595C129.903 82.511 132.967 78.4155 135.46 73.7193C138.033 68.8829 140.787 64.1366 143.451 59.3403C144.902 56.7268 146.244 54.0533 147.776 51.4799C148.617 50.068 149.729 48.8264 150.72 47.5146C150.82 47.3845 150.94 47.2242 151.081 47.1642C151.601 46.9739 152.262 46.5534 152.643 46.7336C153.043 46.9238 153.334 47.6648 153.384 48.1955C153.584 50.2983 153.243 52.3911 152.372 54.2636C150.88 57.4478 149.128 60.5018 147.486 63.6159C144.171 69.9043 139.505 75.2213 135.14 80.7586C133.658 82.6512 132.616 84.9041 131.485 87.057C130.513 88.9094 129.712 90.852 128.851 92.7645C128.741 93.0249 128.721 93.3253 128.661 93.6056C128.721 93.6557 128.781 93.7158 128.851 93.7659C129.202 93.5756 129.582 93.4354 129.893 93.1951C132.436 91.2225 134.929 89.1798 137.503 87.2572C139.115 86.0557 140.837 85.0043 142.539 83.9429C143.15 83.5724 144.011 83.1418 144.552 83.7726C144.973 84.2733 145.193 85.1845 145.083 85.8354C144.852 87.1771 144.392 88.4789 143.931 89.7706C143.631 90.6417 143.701 91.3827 144.362 92.0035C145.073 92.6744 146.014 92.9248 146.845 92.4341C148.838 91.2726 150.79 90.0109 152.703 88.7092C154.525 87.4575 156.227 86.0456 158.06 84.814C159.071 84.1231 159.702 84.5437 159.722 85.7653C159.752 87.3073 159.091 88.6491 158.45 89.9809C156.528 93.9561 154.625 97.9414 152.633 101.887C150.7 105.702 148.707 109.487 146.675 113.252C143.461 119.21 140.206 125.137 136.972 131.085C136.571 131.816 136.121 132.537 135.72 133.268C135.6 133.488 135.55 133.739 135.47 133.979C135.56 134.019 135.64 134.059 135.73 134.089" fill="black"/>
<path d="M185.006 63.1854C184.685 63.7461 184.495 64.5171 184.014 64.7975C183.644 65.0178 182.843 64.7474 182.352 64.4771C181.611 64.0565 180.96 63.4657 180.289 62.925C179.829 62.5545 179.759 62.0539 180.209 61.7134C180.83 61.2328 181.511 60.7221 182.252 60.5218C183.524 60.1814 184.835 61.5732 184.996 63.1954" fill="black"/>
<path d="M204.181 71.967C203.73 72.778 203.29 73.5991 202.799 74.4002C202.699 74.5604 202.429 74.6805 202.228 74.6805C201.377 74.6805 200.987 74.0297 200.576 73.4389C200.196 72.8982 200.416 72.3274 200.856 72.027C201.527 71.5664 202.288 71.1859 203.059 70.9556C203.66 70.7654 204.031 71.216 204.181 71.977" fill="black"/>
<path d="M345.708 95.1076C346.389 94.8673 347.09 94.647 347.761 94.3666C349.674 93.5956 351.566 92.7745 353.499 92.0236C354.6 91.593 355.471 92.2539 355.361 93.4454C355.281 94.2966 354.971 95.1277 354.78 95.9688C354.72 96.2291 354.72 96.4995 354.7 96.7598C354.991 96.7798 355.311 96.89 355.561 96.8099C358.455 95.8486 361.289 94.7672 363.962 93.2752C364.363 93.0549 365.174 92.9147 365.394 93.135C365.785 93.5355 366.005 94.2265 366.045 94.8172C366.075 95.2678 365.695 95.7385 365.554 96.2191C365.474 96.4895 365.384 96.89 365.514 97.0402C365.665 97.2104 366.085 97.2805 366.336 97.2104C367.627 96.8499 368.899 96.4394 370.181 96.0389C370.501 95.9387 370.801 95.7885 371.122 95.6884C372.364 95.2678 372.804 95.5382 373.024 96.8299C373.205 97.9113 373.445 98.0515 374.486 97.681C377.57 96.5796 380.644 95.4781 383.729 94.3867C384.71 94.0362 385.411 94.657 385.221 95.6884C385.03 96.7698 385.581 97.1904 386.642 96.9C388.675 96.3493 390.628 95.6383 392.37 94.4067C393.031 93.9461 393.542 94.2064 393.732 94.9975C393.772 95.1577 393.802 95.3279 393.822 95.4981C393.962 96.4895 394.403 96.8499 395.374 96.4995C397.136 95.8786 398.859 95.1477 400.591 94.4468C401.913 93.906 403.204 93.3153 404.526 92.8046C405.497 92.4341 405.988 92.7445 406.048 93.7859C406.128 95.2779 406.168 95.7885 408.361 95.8686C412.276 95.9988 415.681 94.5469 418.715 92.2939C421.198 90.4415 423.491 88.3186 425.794 86.2359C428.268 84.0029 430.661 81.6798 433.064 79.3768C433.605 78.8561 434.095 78.2653 434.546 77.6645C434.996 77.0737 434.896 76.7633 434.135 76.6432C432.563 76.3929 430.981 76.1926 429.399 76.0324C424.943 75.5818 420.487 75.1512 416.031 74.7306C412.356 74.3802 408.672 74.0698 404.987 73.7193C401.062 73.3488 397.136 72.9583 393.201 72.5978C387.353 72.0571 381.496 71.5064 375.638 71.0358C372.343 70.7654 369.039 70.6553 365.745 70.455C362 70.2247 358.255 70.0044 354.52 69.734C348.682 69.3135 342.854 68.8829 337.017 68.4023C334.563 68.192 332.13 67.8215 329.677 67.5311C329.016 67.451 328.345 67.4009 327.524 67.3108C327.734 67.0004 327.785 66.8602 327.885 66.7901C329.827 65.3883 331.6 63.7061 333.953 62.9851C334.383 62.8549 334.924 62.8349 335.345 62.9851C337.577 63.7161 339.881 63.9464 342.194 64.1366C347.07 64.5371 351.946 64.9677 356.833 65.3582C360.658 65.6586 364.483 65.909 368.298 66.1793C372.424 66.4597 376.559 66.69 380.695 67.0104C386.773 67.481 392.861 67.9617 398.929 68.5124C404.116 68.983 409.292 69.5438 414.469 70.0845C420.097 70.6653 425.714 71.2761 431.342 71.8769C433.424 72.0972 435.517 72.3475 437.61 72.5277C439.152 72.6579 440.394 72.0671 441.295 70.7954C443.227 68.0818 445.16 65.3783 447.082 62.6547C447.853 61.5532 448.604 60.4317 449.295 59.2902C450.357 57.5479 451.849 56.3663 453.731 55.6053C454.582 55.2649 455.413 54.8443 456.245 54.4638C457.126 54.0533 457.817 54.4138 457.656 55.345C457.466 56.4264 457.176 57.5679 456.585 58.4691C454.622 61.4931 452.53 64.427 450.447 67.3809C449.395 68.8629 448.254 70.2848 447.183 71.7567C446.502 72.6879 446.722 73.1285 447.883 73.2387C449.946 73.4389 452.009 73.6392 454.072 73.8194C458.638 74.23 463.214 74.5905 467.78 75.0611C472.566 75.5517 477.353 76.1125 482.139 76.6732C484.192 76.9135 486.254 77.1639 488.287 77.5344C488.868 77.6345 489.619 78.0751 489.849 78.5657C490.21 79.3267 489.839 80.1278 489.088 80.6585C487.486 81.81 485.643 82.4008 483.741 82.7713C480.166 83.4622 476.581 84.073 473.007 84.7339C469.843 85.3147 466.658 85.8153 463.514 86.4862C459.269 87.3874 455.043 88.3687 451.038 90.091C449.255 90.862 447.924 92.1838 446.782 93.6857C443.738 97.7111 439.572 99.4834 434.686 99.7838C433.885 99.8339 432.994 99.7538 432.403 98.9627C432.303 98.8326 431.892 98.8125 431.702 98.9127C431.001 99.2631 430.34 99.6737 429.659 100.064C427.597 101.256 425.334 101.326 423.061 101.126C422.75 101.096 422.31 100.615 422.219 100.264C421.669 98.1016 421.829 95.9888 422.88 93.9861C423.001 93.7659 423.091 93.5255 423.181 93.2952C423.211 93.2251 423.191 93.135 423.211 92.9047C422.971 92.9948 422.76 93.0249 422.61 93.135C419.416 95.408 415.921 97.0802 412.206 98.2918C409.242 99.2531 406.208 99.924 403.054 99.8439C401.752 99.8139 400.611 99.5135 399.88 98.3419C399.6 97.8913 399.269 97.8112 398.829 98.0916C396.866 99.3232 394.623 99.7538 392.44 100.325C391.399 100.605 390.297 100.735 389.216 100.775C388.615 100.795 387.974 100.575 387.393 100.335C386.863 100.124 386.422 100.034 385.891 100.315C384.119 101.266 382.187 101.546 380.204 101.546C379.022 101.546 378.492 101.176 378.281 99.9941C378.131 99.2031 377.851 99.0829 377.16 99.4233C375.508 100.234 373.855 101.086 372.143 101.736C370.852 102.227 369.46 102.487 368.098 102.758C367.337 102.908 366.846 102.517 366.666 101.706C366.486 100.865 366.095 100.715 365.244 100.995C363.702 101.496 362.17 102.057 360.598 102.437C358.946 102.828 358.515 102.357 358.595 100.675C358.615 100.254 358.495 99.8339 358.445 99.4233C358.035 99.5435 357.614 99.6536 357.213 99.8038C354.83 100.695 352.467 101.616 350.074 102.467C349.403 102.708 348.612 102.718 348.121 102.097C347.581 101.406 347.441 100.565 347.921 99.7338C348.212 99.2231 348.532 98.7324 348.762 98.1917C348.862 97.9514 348.752 97.6109 348.732 97.3206C348.502 97.3406 348.232 97.3005 348.031 97.4007C345.828 98.432 343.656 99.5135 341.443 100.515C339.59 101.346 337.738 102.227 335.795 102.818C334.944 103.078 333.903 102.648 332.941 102.557C332.451 102.507 331.95 102.407 331.479 102.487C330.458 102.638 329.467 102.948 328.445 103.088C326.923 103.298 325.862 102.487 325.241 100.745C324.911 99.8139 324.831 99.8038 323.959 100.284C322.217 101.236 320.465 102.167 318.713 103.098C318.492 103.218 318.232 103.308 317.992 103.308C317.701 103.308 317.311 103.308 317.16 103.128C317.01 102.958 317.05 102.537 317.13 102.277C317.401 101.486 317.771 100.725 318.032 99.934C318.122 99.6536 318.102 99.2431 317.942 99.0128C317.841 98.8726 317.401 98.9427 317.11 98.9727C314.707 99.2331 312.945 100.915 310.822 101.786C309.63 102.267 308.459 102.788 307.257 103.248C307.037 103.339 306.586 103.318 306.516 103.188C306.386 102.958 306.396 102.598 306.476 102.327C306.617 101.877 306.867 101.466 307.037 101.015C307.127 100.775 307.147 100.515 307.197 100.264C307.127 100.194 307.067 100.134 306.997 100.064C305.956 100.625 304.944 101.236 303.883 101.736C302.09 102.578 300.298 103.429 298.456 104.13C296.914 104.71 295.972 103.989 295.882 102.327C295.852 101.837 296.042 101.326 296.032 100.835C296.032 100.425 295.992 99.8839 295.742 99.6436C295.572 99.4734 294.951 99.6036 294.621 99.7638C292.217 100.955 289.854 102.207 287.451 103.409C286.88 103.689 286.26 103.889 285.639 104.029C285.088 104.15 284.707 103.979 285.038 103.308C285.468 102.437 285.829 101.516 286.36 100.705C287.661 98.7124 288.963 96.7198 290.405 94.8373C291.987 92.7645 294.09 91.2525 296.273 89.8707C297.494 89.0997 298.336 89.4401 298.856 90.8019C299.277 91.9234 299.647 91.9835 300.599 91.2926C300.919 91.0523 301.53 90.9421 301.89 91.0823C302.211 91.2125 302.561 91.7732 302.541 92.1237C302.491 93.1751 302.271 94.2265 302.121 95.2678C302.061 95.6584 301.95 96.0389 301.93 96.4194C301.85 97.8112 302.511 98.3419 303.793 97.7611C305.976 96.7598 308.098 95.6283 310.241 94.5469C310.812 94.2565 311.363 93.9261 311.944 93.6357C313.045 93.0649 313.696 93.4154 313.876 94.657C313.896 94.8273 313.886 94.9975 313.926 95.1577C314.066 95.7285 314.387 95.9487 314.978 95.6884C316.209 95.1577 317.421 94.5669 318.692 94.1564C319.824 93.7959 321.016 93.5856 322.197 93.4154C323.088 93.2852 323.659 93.7659 323.969 94.617C324.53 96.139 324.871 96.1991 326.303 95.418C327.524 94.7572 328.816 94.1864 330.098 93.6557C330.969 93.2852 331.82 94.0963 331.8 95.2378C331.8 95.5482 331.72 95.8486 331.71 96.159C331.69 96.8299 332.04 97.3005 332.661 97.4908C334.163 97.9714 335.495 97.7611 336.666 96.5796C338.218 95.0175 339.79 93.4554 341.473 92.0336C342.564 91.1123 343.726 90.1611 345.318 90.2011C346.74 90.2412 347.471 91.3126 346.85 92.5843C346.459 93.3753 345.969 94.1163 345.528 94.8773L345.688 95.1777L345.708 95.1076ZM480.397 80.8888C480.016 80.7987 479.786 80.7286 479.545 80.6985C477.132 80.4082 474.709 80.0978 472.286 79.8474C467.109 79.3167 461.922 78.806 456.745 78.3054C452.48 77.8948 448.214 77.5243 443.958 77.1338C443.197 77.0637 442.617 77.3341 442.116 77.9149C440.854 79.3768 439.542 80.7987 438.281 82.2606C435.177 85.8253 431.872 89.2299 429.429 93.3253C429.059 93.9461 428.678 94.5769 428.408 95.2478C428.298 95.5282 428.478 95.9187 428.518 96.2491C428.828 96.149 429.199 96.119 429.429 95.9187C431.482 94.1063 433.484 92.2238 435.557 90.4314C438.271 88.0883 441.365 86.356 444.619 84.9041C445.44 84.5336 446.061 84.8941 445.891 85.7552C445.731 86.5663 445.34 87.3974 444.859 88.0683C443.878 89.4201 442.747 90.6718 441.695 91.9835C441.485 92.2438 441.385 92.5843 441.195 92.9448C441.986 93.1851 442.276 92.6644 442.526 92.2939C443.428 90.9421 444.609 89.9608 446.081 89.32C448.104 88.4488 450.086 87.4775 452.169 86.7766C453.932 86.1858 455.804 85.8754 457.646 85.535C461.131 84.8741 464.636 84.2533 468.13 83.6424C471.605 83.0416 475.089 82.4909 478.554 81.8601C479.165 81.7499 479.896 81.7199 480.407 80.8788" fill="black"/>
<path d="M230.546 178.658C231.267 175.374 232.739 172.39 234.221 169.406C237.825 162.146 241.4 154.867 245.085 147.637C246.938 144.002 248.95 140.448 250.983 136.913C255.939 128.312 260.876 119.69 265.953 111.159C271.23 102.287 276.667 93.5155 282.024 84.6938C284.878 79.9776 287.722 75.2614 290.535 70.5251C291.046 69.6639 291.436 68.7227 291.827 67.7915C291.937 67.5211 291.867 67.1706 291.877 66.8502C291.587 66.8903 291.246 66.8502 291.006 66.9904C289.193 68.0418 287.401 69.1232 285.589 70.1846C281.083 72.8381 276.607 75.5317 272.061 78.1251C265.923 81.6298 259.734 85.0643 253.566 88.5089C245.345 93.095 237.125 97.7011 228.874 102.227C223.336 105.261 217.759 108.225 212.151 111.129C209.798 112.35 207.215 112.961 204.561 113.081C202.539 113.172 200.957 112.421 200.156 110.418C200.096 110.258 199.905 110.158 199.775 110.027V106.493C200.156 105.742 200.586 105.011 200.917 104.24C203.39 98.422 206.154 92.7445 209.178 87.1871C211.931 82.1304 214.535 76.9936 217.238 71.8969C219.992 66.71 222.755 61.5332 225.549 56.3763C228.623 50.6988 231.727 45.0313 234.831 39.3638C239.047 31.6636 243.193 23.9234 247.498 16.2733C249.691 12.3781 252.124 8.61312 254.518 4.8281C255.369 3.48633 256.41 2.26471 257.441 1.04309C257.802 0.612523 258.323 0.211993 258.843 0.0617944C259.815 -0.208564 260.455 0.432285 260.255 1.51372C260.075 2.47499 259.785 3.49634 259.274 4.31743C256.68 8.50297 253.917 12.5784 251.363 16.7839C248.57 21.37 245.886 26.0262 243.253 30.7024C240.399 35.7691 237.665 40.9059 234.892 46.0226C232.679 50.098 230.456 54.1734 228.253 58.2689C225.539 63.3155 222.866 68.3923 220.162 73.4389C217.248 78.8861 214.274 84.3033 211.41 89.7806C208.907 94.5569 206.494 99.3833 204.111 104.22C203.66 105.131 203.47 106.182 203.28 107.204C203.069 108.285 203.61 108.876 204.692 108.876C207.405 108.866 209.949 108.145 212.342 106.913C216.067 105.001 219.772 103.048 223.476 101.086C228.193 98.5822 232.899 96.0689 237.585 93.5155C243.132 90.5015 248.69 87.4875 254.197 84.4035C262.248 79.8975 270.278 75.3515 278.279 70.7554C284.317 67.2908 290.285 63.696 296.313 60.2114C296.753 59.9611 297.555 59.861 297.925 60.1013C298.306 60.3416 298.626 61.1727 298.496 61.6033C298.065 63.0051 297.555 64.417 296.834 65.6887C293.429 71.6966 290.035 77.7246 286.46 83.6424C281.874 91.2325 277.057 98.6824 272.461 106.272C267.344 114.724 262.328 123.225 257.351 131.756C252.965 139.266 248.66 146.826 244.414 154.416C241.62 159.423 239.017 164.53 236.303 169.576C234.892 172.21 233.41 174.803 231.968 177.417C231.737 177.837 231.497 178.248 231.257 178.668H230.586L230.546 178.658Z" fill="black"/>
</svg>
