<svg width="64" height="64" viewBox="0 0 64 64" fill="none" xmlns="http://www.w3.org/2000/svg">
<path fill-rule="evenodd" clip-rule="evenodd" d="M7.10284 50.8788C7.09886 50.903 7.09491 50.9272 7.09226 50.9513C7.09226 50.9513 6.69884 54.3508 6.51207 55.9578C6.45247 56.4788 6.61541 56.9997 6.9598 57.3904C7.3042 57.7811 7.79827 58.0013 8.31486 57.9986C11.3402 57.9758 21.8641 57.8979 24.2947 57.8791C25.0511 57.8737 25.7226 57.3891 25.9783 56.6681L32.0105 39.589L38.0175 56.7835C38.2745 57.5179 38.9606 58.0066 39.7289 57.9999C42.1807 57.9811 52.7046 57.9033 55.7114 57.8804C56.2241 57.8764 56.7102 57.6522 57.0493 57.2628C57.3884 56.8735 57.5473 56.3566 57.4877 55.841L51.89 7.6138C51.7827 6.69278 51.0131 6 50.0991 6H13.898C12.984 6 12.2144 6.69278 12.1085 7.6138L7.10814 50.8063C7.10549 50.8305 7.10284 50.8547 7.10151 50.8788H7.10284ZM38.701 52.1758L39.9686 55.8061L55.2915 55.692L54.8836 52.1758H38.701ZM24.0272 55.688L8.70693 55.8021L9.12682 52.1744H25.267L24.0258 55.6866L24.0272 55.688ZM51.6476 24.2982C48.0963 24.6043 45.7055 23.7048 44.0855 22.3474C41.2363 19.9616 40.7727 16.0157 40.7329 14.0368H36.9724V23.6672C36.9724 24.7439 36.4519 25.7536 35.579 26.3671L33.0808 28.1259V36.0861L37.9354 49.9833H54.6292L51.6476 24.2982ZM30.9177 36.1761V14.0368H23.0112C22.9715 16.0157 22.5079 19.9603 19.6587 22.3474C18.0771 23.6712 15.7617 24.5613 12.3509 24.3183L9.39571 49.8477L26.0432 49.9779L30.9177 36.1761ZM50.47 45.4991C50.5164 45.9005 50.5574 46.2657 50.5945 46.5879C50.6634 47.1894 51.1999 47.6204 51.7933 47.5505C52.3867 47.4807 52.8119 46.937 52.743 46.3355C52.7059 46.0133 52.6649 45.6481 52.6185 45.2466C52.5496 44.6452 52.0118 44.2142 51.4197 44.284C50.8263 44.3538 50.4011 44.8989 50.47 45.4991ZM11.3786 45.2453C11.3323 45.6467 11.2912 46.0119 11.2541 46.3341C11.1852 46.9356 11.6104 47.4794 12.2038 47.5492C12.7959 47.619 13.3337 47.188 13.4026 46.5866C13.4397 46.2643 13.4808 45.8991 13.5271 45.4977C13.596 44.8962 13.1708 44.3525 12.5774 44.2827C11.984 44.2129 11.4475 44.6438 11.3786 45.2453ZM11.878 40.8913C11.8356 41.2618 11.7932 41.6257 11.7535 41.9801C11.6846 42.5803 12.1098 43.1254 12.7032 43.1952C13.2953 43.265 13.8331 42.834 13.902 42.2325C13.943 41.8781 13.9841 41.5142 14.0265 41.1437C14.0954 40.5422 13.6702 39.9985 13.0768 39.9286C12.4833 39.8588 11.9469 40.2898 11.878 40.8913ZM49.972 41.1437C50.0144 41.5142 50.0567 41.8781 50.0965 42.2325C50.1654 42.834 50.7031 43.265 51.2952 43.1952C51.8887 43.1254 52.3138 42.5816 52.245 41.9801C52.2039 41.6257 52.1628 41.2618 52.1205 40.8913C52.0516 40.2898 51.5151 39.8588 50.9217 39.9286C50.3283 39.9985 49.9031 40.5422 49.972 41.1437ZM49.4726 36.7897C49.5137 37.1535 49.556 37.516 49.5971 37.8785C49.666 38.48 50.2038 38.911 50.7959 38.8411C51.388 38.7713 51.8145 38.2276 51.7456 37.6261C51.7045 37.2636 51.6621 36.9011 51.6211 36.5373C51.5522 35.9371 51.0157 35.5048 50.4223 35.5746C49.8302 35.6444 49.4037 36.1895 49.4726 36.7897ZM12.3774 36.5373C12.3363 36.9011 12.2939 37.2636 12.2529 37.6261C12.184 38.2276 12.6092 38.7713 13.2026 38.8411C13.7947 38.911 14.3325 38.48 14.4014 37.8785C14.4424 37.516 14.4848 37.1535 14.5259 36.7897C14.5947 36.1895 14.1696 35.6444 13.5761 35.5746C12.9827 35.5048 12.4463 35.9358 12.3774 36.5373ZM12.8767 32.1819C12.8357 32.5377 12.7946 32.9015 12.7522 33.2707C12.6834 33.8722 13.1085 34.416 13.702 34.4858C14.2941 34.5556 14.8319 34.1246 14.9007 33.5231C14.9431 33.1539 14.9842 32.7901 15.0252 32.4343C15.0941 31.8328 14.6689 31.2891 14.0755 31.2192C13.4821 31.1494 12.9456 31.5804 12.8767 32.1819ZM48.9732 32.4356C49.0143 32.7914 49.0553 33.1553 49.0977 33.5245C49.1666 34.126 49.7044 34.5569 50.2965 34.4871C50.8886 34.4173 51.3151 33.8736 51.2462 33.2721C51.2038 32.9029 51.1628 32.539 51.1217 32.1832C51.0528 31.5817 50.5164 31.1508 49.9229 31.2206C49.3295 31.2904 48.9043 31.8342 48.9732 32.4356ZM48.4738 28.0803C48.5123 28.4132 48.5533 28.7784 48.5984 29.1691C48.6672 29.7692 49.205 30.2016 49.7971 30.1317C50.3905 30.0619 50.8157 29.5182 50.7468 28.9167C50.7018 28.526 50.6607 28.1608 50.6223 27.8279C50.5535 27.2277 50.0157 26.7954 49.4236 26.8652C48.8315 26.935 48.405 27.4801 48.4738 28.0803ZM13.3748 27.8279C13.3364 28.1608 13.2953 28.526 13.2503 28.9167C13.1814 29.5182 13.6066 30.0619 14.2 30.1317C14.7921 30.2016 15.3299 29.7706 15.3988 29.1691C15.4438 28.7784 15.4849 28.4132 15.5233 28.0803C15.5922 27.4801 15.167 26.935 14.5736 26.8652C13.9801 26.7954 13.4437 27.2264 13.3748 27.8279ZM33.0808 14.0368V25.4582L34.3458 24.568C34.6372 24.3626 34.8107 24.027 34.8107 23.6685V14.0368H33.0808ZM50.4568 14.0368H42.8721C42.8788 15.6237 43.202 18.7654 45.4617 20.6571C46.7347 21.7231 48.6249 22.3461 51.3946 22.1205L50.4568 14.0368ZM13.543 14.0368L12.6052 22.138C15.2358 22.3058 17.0492 21.6895 18.2837 20.6571C20.5435 18.7654 20.8667 15.6237 20.8733 14.0368H13.543ZM42.8827 8.19111V11.8443H50.2024L49.7786 8.19111H42.8827ZM40.721 8.19111H33.0808V11.8443H40.721V8.19111ZM22.9887 8.19111V11.8443H30.9177V8.19111H22.9887ZM20.8256 8.19111H14.2186L13.796 11.8443H20.8256V8.19111ZM35.2425 8.92282C35.8399 8.92282 36.3234 9.41421 36.3234 10.0184C36.3234 10.6225 35.8386 11.1139 35.2425 11.1139C34.6464 11.1139 34.1616 10.6225 34.1616 10.0184C34.1616 9.41421 34.6464 8.92282 35.2425 8.92282Z" fill="black"/>
</svg>
