<svg width="64" height="64" viewBox="0 0 64 64" fill="none" xmlns="http://www.w3.org/2000/svg">
<path fill-rule="evenodd" clip-rule="evenodd" d="M7.02821 17.8104V38.7369C6.61235 38.8932 6.31492 39.2963 6.31492 39.7681V50.418C6.12112 50.6161 6 50.8884 6 51.189V54.6989C6 56.5213 7.47502 58 9.29593 58H54.7041C56.525 58 58 56.5227 58 54.6989V51.189C58 50.6053 57.5465 50.1281 56.9731 50.0904V47.9162C56.9731 44.7068 55.7 41.6282 53.4336 39.3583C51.1672 37.0884 48.0934 35.8132 44.889 35.8132H39.7802C34.3202 35.8132 29.8938 31.3799 29.8938 25.9101V18.1474C30.2276 18.0719 30.5371 17.9021 30.7834 17.6554C31.1266 17.3117 31.319 16.8453 31.319 16.3587V7.83315C31.319 7.34655 31.1266 6.88019 30.7834 6.53647C30.4402 6.19275 29.9745 6 29.4887 6H8.14659C7.66075 6 7.19509 6.19275 6.85191 6.53647C6.50872 6.88019 6.31492 7.34655 6.31492 7.83315V16.3587C6.31492 16.8453 6.50738 17.3117 6.85191 17.6554C6.90709 17.7107 6.9663 17.7633 7.02821 17.8104ZM55.8036 52.2875H8.19908V54.6962C8.19908 55.3042 8.69031 55.7961 9.29727 55.7961H12.7305V54.8984C12.7305 54.2905 13.223 53.7985 13.8287 53.7985C14.4343 53.7985 14.9269 54.2919 14.9269 54.8984V55.7961H19.8566V54.8984C19.8566 54.2905 20.3492 53.7985 20.9548 53.7985C21.5604 53.7985 22.053 54.2919 22.053 54.8984V55.7961H26.9828V54.8984C26.9828 54.2905 27.4753 53.7985 28.081 53.7985C28.6866 53.7985 29.1792 54.2919 29.1792 54.8984V55.7961H34.1089V54.8984C34.1089 54.2905 34.6015 53.7985 35.2071 53.7985C35.8127 53.7985 36.3053 54.2919 36.3053 54.8984V55.7961H41.2351V54.8984C41.2351 54.2905 41.7276 53.7985 42.3333 53.7985C42.9389 53.7985 43.4314 54.2919 43.4314 54.8984V55.7961H48.3612V54.8984C48.3612 54.2905 48.8538 53.7985 49.4594 53.7985C50.065 53.7985 50.5576 54.2919 50.5576 54.8984V55.7961H54.7027C55.3097 55.7961 55.8009 55.3028 55.8009 54.6962V52.2875H55.8036ZM27.6961 18.1919H9.22594V38.7975C14.9121 39.6251 19.364 44.293 19.8687 50.0877H54.7768V47.9149C54.7768 45.2891 53.7351 42.7699 51.8805 40.9124C50.026 39.055 47.512 38.0117 44.889 38.0117H39.7802C33.1063 38.0117 27.6961 32.5931 27.6961 25.9087V18.1919ZM17.6602 50.0863H8.51266V40.9245C13.3226 41.4354 17.1488 45.2689 17.6602 50.0863ZM33.0699 38.4902C33.8559 38.4902 34.4952 39.1291 34.4952 39.9177C34.4952 40.7062 33.8559 41.3451 33.0699 41.3451C32.284 41.3451 31.6447 40.7048 31.6447 39.9177C31.6447 39.1305 32.284 38.4902 33.0699 38.4902ZM28.8023 35.762C29.5883 35.762 30.2276 36.4009 30.2276 37.1895C30.2276 37.978 29.5883 38.6169 28.8023 38.6169C28.0164 38.6169 27.3771 37.978 27.3771 37.1895C27.3771 36.4009 28.0164 35.762 28.8023 35.762ZM25.9438 31.9151C26.7298 31.9151 27.369 32.554 27.369 33.3425C27.369 34.131 26.7311 34.77 25.9438 34.77C25.1565 34.77 24.5186 34.1297 24.5186 33.3425C24.5186 32.5553 25.1578 31.9151 25.9438 31.9151ZM24.606 27.3807C25.3933 27.3807 26.0313 28.0209 26.0313 28.8081C26.0313 29.5953 25.392 30.2355 24.606 30.2355C23.8201 30.2355 23.1808 29.5953 23.1808 28.8081C23.1808 28.0209 23.8187 27.3807 24.606 27.3807ZM8.51266 15.9908H29.1199V8.19843H8.51266V15.9908Z" fill="black"/>
</svg>
